<svg xmlns="http://www.w3.org/2000/svg" xmlns:xlink="http://www.w3.org/1999/xlink" version="1.1" class="marks" width="978" height="479" viewBox="0 0 978 479"><rect width="978" height="479" fill="#0e1117"/><g fill="none" stroke-miterlimit="10" transform="translate(64,18)"><g class="mark-group role-frame root" role="graphics-object" aria-roledescription="group mark container"><g transform="translate(0,0)"><path class="background" aria-hidden="true" d="M0,0h804v384h-804Z" stroke-width="0"/><g><g class="mark-group role-axis" aria-hidden="true"><g transform="translate(0.5,0.5)"><path class="background" aria-hidden="true" d="M0,0h0v0h0Z" pointer-events="none"/><g><g class="mark-rule role-axis-grid" pointer-events="none"><line transform="translate(0,384)" x2="804" y2="0" stroke="#31333F" stroke-width="1" opacity="1"/><line transform="translate(0,346)" x2="804" y2="0" stroke="#31333F" stroke-width="1" opacity="1"/><line transform="translate(0,307)" x2="804" y2="0" stroke="#31333F" stroke-width="1" opacity="1"/><line transform="translate(0,269)" x2="804" y2="0" stroke="#31333F" stroke-width="1" opacity="1"/><line transform="translate(0,230)" x2="804" y2="0" stroke="#31333F" stroke-width="1" opacity="1"/><line transform="translate(0,192)" x2="804" y2="0" stroke="#31333F" stroke-width="1" opacity="1"/><line transform="translate(0,154)" x2="804" y2="0" stroke="#31333F" stroke-width="1" opacity="1"/><line transform="translate(0,115)" x2="804" y2="0" stroke="#31333F" stroke-width="1" opacity="1"/><line transform="translate(0,77)" x2="804" y2="0" stroke="#31333F" stroke-width="1" opacity="1"/><line transform="translate(0,38)" x2="804" y2="0" stroke="#31333F" stroke-width="1" opacity="1"/><line transform="translate(0,0)" x2="804" y2="0" stroke="#31333F" stroke-width="1" opacity="1"/></g></g><path class="foreground" aria-hidden="true" d="" pointer-events="none" display="none"/></g></g><g class="mark-group role-axis" role="graphics-symbol" aria-roledescription="axis" aria-label="X-axis titled 'Date' for a time scale with values from Thursday, 10 August 2023, 1:00:00 AM to Wednesday, 31 January 2024, 12:00:00 AM"><g transform="translate(0.5,384.5)"><path class="background" aria-hidden="true" d="M0,0h0v0h0Z" pointer-events="none"/><g><g class="mark-text role-axis-label" pointer-events="none"><text text-anchor="middle" transform="translate(13.669540229885058,25)" font-family="&quot;Source Sans Pro&quot;, sans-serif" font-size="12px" font-style="normal" font-weight="400" fill="#e6eaf1" opacity="1">Aug 13</text><text text-anchor="middle" transform="translate(46.014367816091955,25)" font-family="&quot;Source Sans Pro&quot;, sans-serif" font-size="12px" font-style="normal" font-weight="400" fill="#e6eaf1" opacity="0">Aug 20</text><text text-anchor="middle" transform="translate(78.35919540229885,25)" font-family="&quot;Source Sans Pro&quot;, sans-serif" font-size="12px" font-style="normal" font-weight="400" fill="#e6eaf1" opacity="1">Aug 27</text><text text-anchor="middle" transform="translate(110.70402298850574,25)" font-family="&quot;Source Sans Pro&quot;, sans-serif" font-size="12px" font-style="normal" font-weight="400" fill="#e6eaf1" opacity="0">Sep 03</text><text text-anchor="middle" transform="translate(143.04885057471265,25)" font-family="&quot;Source Sans Pro&quot;, sans-serif" font-size="12px" font-style="normal" font-weight="400" fill="#e6eaf1" opacity="1">Sep 10</text><text text-anchor="middle" transform="translate(175.39367816091954,25)" font-family="&quot;Source Sans Pro&quot;, sans-serif" font-size="12px" font-style="normal" font-weight="400" fill="#e6eaf1" opacity="0">Sep 17</text><text text-anchor="middle" transform="translate(207.73850574712642,25)" font-family="&quot;Source Sans Pro&quot;, sans-serif" font-size="12px" font-style="normal" font-weight="400" fill="#e6eaf1" opacity="1">Sep 24</text><text text-anchor="middle" transform="translate(240.08333333333331,25)" font-family="&quot;Source Sans Pro&quot;, sans-serif" font-size="12px" font-style="normal" font-weight="400" fill="#e6eaf1" opacity="0">October</text><text text-anchor="middle" transform="translate(272.42816091954023,25)" font-family="&quot;Source Sans Pro&quot;, sans-serif" font-size="12px" font-style="normal" font-weight="400" fill="#e6eaf1" opacity="1">Oct 08</text><text text-anchor="middle" transform="translate(304.77298850574715,25)" font-family="&quot;Source Sans Pro&quot;, sans-serif" font-size="12px" font-style="normal" font-weight="400" fill="#e6eaf1" opacity="0">Oct 15</text><text text-anchor="middle" transform="translate(337.117816091954,25)" font-family="&quot;Source Sans Pro&quot;, sans-serif" font-size="12px" font-style="normal" font-weight="400" fill="#e6eaf1" opacity="1">Oct 22</text><text text-anchor="middle" transform="translate(369.46264367816093,25)" font-family="&quot;Source Sans Pro&quot;, sans-serif" font-size="12px" font-style="normal" font-weight="400" fill="#e6eaf1" opacity="0">Oct 29</text><text text-anchor="middle" transform="translate(402,25)" font-family="&quot;Source Sans Pro&quot;, sans-serif" font-size="12px" font-style="normal" font-weight="400" fill="#e6eaf1" opacity="1">Nov 05</text><text text-anchor="middle" transform="translate(434.3448275862069,25)" font-family="&quot;Source Sans Pro&quot;, sans-serif" font-size="12px" font-style="normal" font-weight="400" fill="#e6eaf1" opacity="0">Nov 12</text><text text-anchor="middle" transform="translate(466.6896551724138,25)" font-family="&quot;Source Sans Pro&quot;, sans-serif" font-size="12px" font-style="normal" font-weight="400" fill="#e6eaf1" opacity="1">Nov 19</text><text text-anchor="middle" transform="translate(499.0344827586207,25)" font-family="&quot;Source Sans Pro&quot;, sans-serif" font-size="12px" font-style="normal" font-weight="400" fill="#e6eaf1" opacity="0">Nov 26</text><text text-anchor="middle" transform="translate(531.3793103448276,25)" font-family="&quot;Source Sans Pro&quot;, sans-serif" font-size="12px" font-style="normal" font-weight="400" fill="#e6eaf1" opacity="1">Dec 03</text><text text-anchor="middle" transform="translate(563.7241379310345,25)" font-family="&quot;Source Sans Pro&quot;, sans-serif" font-size="12px" font-style="normal" font-weight="400" fill="#e6eaf1" opacity="0">Dec 10</text><text text-anchor="middle" transform="translate(596.0689655172414,25)" font-family="&quot;Source Sans Pro&quot;, sans-serif" font-size="12px" font-style="normal" font-weight="400" fill="#e6eaf1" opacity="1">Dec 17</text><text text-anchor="middle" transform="translate(628.4137931034483,25)" font-family="&quot;Source Sans Pro&quot;, sans-serif" font-size="12px" font-style="normal" font-weight="400" fill="#e6eaf1" opacity="0">Dec 24</text><text text-anchor="middle" transform="translate(660.7586206896552,25)" font-family="&quot;Source Sans Pro&quot;, sans-serif" font-size="12px" font-style="normal" font-weight="400" fill="#e6eaf1" opacity="1">Dec 31</text><text text-anchor="middle" transform="translate(693.103448275862,25)" font-family="&quot;Source Sans Pro&quot;, sans-serif" font-size="12px" font-style="normal" font-weight="400" fill="#e6eaf1" opacity="0">Jan 07</text><text text-anchor="middle" transform="translate(725.448275862069,25)" font-family="&quot;Source Sans Pro&quot;, sans-serif" font-size="12px" font-style="normal" font-weight="400" fill="#e6eaf1" opacity="1">Jan 14</text><text text-anchor="middle" transform="translate(757.7931034482758,25)" font-family="&quot;Source Sans Pro&quot;, sans-serif" font-size="12px" font-style="normal" font-weight="400" fill="#e6eaf1" opacity="0">Jan 21</text><text text-anchor="middle" transform="translate(790.1379310344827,25)" font-family="&quot;Source Sans Pro&quot;, sans-serif" font-size="12px" font-style="normal" font-weight="400" fill="#e6eaf1" opacity="1">Jan 28</text></g><g class="mark-text role-axis-title" pointer-events="none"><text text-anchor="middle" transform="translate(402,54)" font-family="&quot;Source Sans Pro&quot;, sans-serif" font-size="14px" font-style="normal" font-weight="400" fill="#e6eaf1" opacity="1">Date</text></g></g><path class="foreground" aria-hidden="true" d="" pointer-events="none" display="none"/></g></g><g class="mark-group role-axis" role="graphics-symbol" aria-roledescription="axis" aria-label="Y-axis titled 'Number of Job Postings' for a linear scale with values from 0 to 100"><g transform="translate(0.5,0.5)"><path class="background" aria-hidden="true" d="M0,0h0v0h0Z" pointer-events="none"/><g><g class="mark-text role-axis-label" pointer-events="none"><text text-anchor="end" transform="translate(-16,382)" font-family="&quot;Source Sans Pro&quot;, sans-serif" font-size="12px" font-style="normal" font-weight="400" fill="#e6eaf1" opacity="1">0</text><text text-anchor="end" transform="translate(-16,349.6)" font-family="&quot;Source Sans Pro&quot;, sans-serif" font-size="12px" font-style="normal" font-weight="400" fill="#e6eaf1" opacity="1">10</text><text text-anchor="end" transform="translate(-16,311.20000000000005)" font-family="&quot;Source Sans Pro&quot;, sans-serif" font-size="12px" font-style="normal" font-weight="400" fill="#e6eaf1" opacity="1">20</text><text text-anchor="end" transform="translate(-16,272.79999999999995)" font-family="&quot;Source Sans Pro&quot;, sans-serif" font-size="12px" font-style="normal" font-weight="400" fill="#e6eaf1" opacity="1">30</text><text text-anchor="end" transform="translate(-16,234.39999999999998)" font-family="&quot;Source Sans Pro&quot;, sans-serif" font-size="12px" font-style="normal" font-weight="400" fill="#e6eaf1" opacity="1">40</text><text text-anchor="end" transform="translate(-16,196)" font-family="&quot;Source Sans Pro&quot;, sans-serif" font-size="12px" font-style="normal" font-weight="400" fill="#e6eaf1" opacity="1">50</text><text text-anchor="end" transform="translate(-16,157.60000000000002)" font-family="&quot;Source Sans Pro&quot;, sans-serif" font-size="12px" font-style="normal" font-weight="400" fill="#e6eaf1" opacity="1">60</text><text text-anchor="end" transform="translate(-16,119.20000000000002)" font-family="&quot;Source Sans Pro&quot;, sans-serif" font-size="12px" font-style="normal" font-weight="400" fill="#e6eaf1" opacity="1">70</text><text text-anchor="end" transform="translate(-16,80.79999999999998)" font-family="&quot;Source Sans Pro&quot;, sans-serif" font-size="12px" font-style="normal" font-weight="400" fill="#e6eaf1" opacity="1">80</text><text text-anchor="end" transform="translate(-16,42.39999999999999)" font-family="&quot;Source Sans Pro&quot;, sans-serif" font-size="12px" font-style="normal" font-weight="400" fill="#e6eaf1" opacity="1">90</text><text text-anchor="end" transform="translate(-16,8)" font-family="&quot;Source Sans Pro&quot;, sans-serif" font-size="12px" font-style="normal" font-weight="400" fill="#e6eaf1" opacity="1">100</text></g><g class="mark-text role-axis-title" pointer-events="none"><text text-anchor="middle" transform="translate(-49.89200019836426,192) rotate(-90) translate(0,-3)" font-family="&quot;Source Sans Pro&quot;, sans-serif" font-size="14px" font-style="normal" font-weight="400" fill="#e6eaf1" opacity="1">Number of Job Postings</text></g></g><path class="foreground" aria-hidden="true" d="" pointer-events="none" display="none"/></g></g><g class="mark-group role-scope layer_0_pathgroup" role="graphics-object" aria-roledescription="group mark container"><g transform="translate(0,0)"><path class="background" aria-hidden="true" d="M0,0h804v384h-804Z"/><g><g class="mark-line role-mark layer_0_marks" role="graphics-object" aria-roledescription="line mark container"><path aria-label="Date: Aug 10, 2023; Number of Job Postings: 73; Metric: Counts; Counts: 73; 7-Day Avg: 0" role="graphics-symbol" aria-roledescription="line mark" d="M0,103.68L4.621,34.56L9.241,165.12L13.862,42.24L18.483,92.16L23.103,111.36L27.724,38.4L36.966,34.56L41.586,176.64L55.448,103.68L60.069,107.52L64.69,157.44L69.31,153.6L73.931,180.48L78.552,203.52L83.172,161.28L87.793,26.88L92.414,215.04L97.034,195.84L101.655,138.24L106.276,176.64L110.897,184.32L115.517,122.88L120.138,199.68L124.759,142.08L129.379,161.28L134,211.2L138.621,176.64L147.862,176.64L152.483,165.12L157.103,115.2L161.724,311.04L166.345,199.68L170.966,253.44L175.586,280.32L180.207,192L184.828,149.76L189.448,145.92L194.069,138.24L198.69,184.32L203.31,215.04L207.931,280.32L212.552,199.68L217.172,188.16L221.793,165.12L226.414,207.36L231.034,184.32L235.655,192L240.276,226.56L244.897,180.48L249.517,184.32L254.138,142.08L258.759,357.12L263.379,349.44L268,134.4L272.621,230.4L277.241,88.32L291.103,157.44L295.724,130.56L304.966,180.48L309.586,172.8L314.207,57.6L318.828,126.72L323.448,145.92L328.069,203.52L332.69,161.28L337.31,161.28L341.931,157.44L346.552,192L351.172,192L355.793,172.8L365.034,249.6L369.655,211.2L383.517,172.8L388.138,172.8L392.759,188.16L397.379,218.88L402,218.88L406.621,207.36L411.241,180.48L415.862,168.96L425.103,230.4L434.345,211.2L443.586,203.52L448.207,119.04L452.828,188.16L457.448,180.48L462.069,241.92L466.69,218.88L471.31,188.16L485.172,192L489.793,145.92L499.034,238.08L503.655,211.2L508.276,222.72L517.517,188.16L522.138,207.36L526.759,222.72L531.379,241.92L536,345.6L545.241,65.28L549.862,199.68L554.483,168.96L559.103,234.24L563.724,245.76L568.345,176.64L572.966,230.4L577.586,218.88L582.207,245.76L591.448,142.08L596.069,268.8L600.69,172.8L605.31,188.16L609.931,184.32L614.552,153.6L619.172,192L623.793,218.88L628.414,291.84L633.034,276.48L637.655,303.36L642.276,261.12L651.517,330.24L656.138,291.84L660.759,334.08L665.379,253.44L674.621,207.36L679.241,218.88L683.862,203.52L688.483,234.24L693.103,238.08L702.345,188.16L711.586,203.52L716.207,241.92L799.379,138.24L804,145.92" stroke="blue" stroke-width="2"/></g></g><path class="foreground" aria-hidden="true" d="" display="none"/></g></g><g class="mark-line role-mark layer_1_marks" role="graphics-object" aria-roledescription="line mark container"><path aria-label="Date: Aug 10, 2023; 7_day_avg: 0; Counts: 73; 7-Day Avg: 0" role="graphics-symbol" aria-roledescription="line mark" d="M27.724,83.931L36.966,74.057L41.586,94.354L55.448,85.577L60.069,94.903L64.69,104.229L69.31,110.263L73.931,130.56L78.552,154.697L83.172,152.503L87.793,141.531L92.414,156.891L97.034,162.377L101.655,160.183L106.276,159.634L110.897,156.891L115.517,151.406L120.138,176.091L124.759,165.669L129.379,160.731L134,171.154L138.621,171.154L147.862,170.057L152.483,176.091L157.103,164.023L161.724,188.16L166.345,193.646L170.966,199.68L175.586,214.491L180.207,216.686L184.828,214.491L189.448,218.88L194.069,194.194L198.69,192L203.31,186.514L207.931,186.514L212.552,187.611L217.172,193.097L221.793,195.84L226.414,205.714L231.034,205.714L235.655,202.423L240.276,194.743L244.897,192L249.517,191.451L254.138,188.16L258.759,209.554L263.379,233.143L268,224.914L272.621,225.463L277.241,212.297L291.103,208.457L295.724,206.811L304.966,181.577L309.586,156.343L314.207,145.371L318.828,130.56L323.448,138.789L328.069,145.371L332.69,149.76L337.31,147.017L341.931,144.823L346.552,164.023L351.172,173.349L355.793,177.189L365.034,183.771L369.655,190.903L383.517,192.549L388.138,194.743L392.759,194.194L397.379,198.034L402,204.617L406.621,198.583L411.241,194.194L415.862,193.646L425.103,201.874L434.345,205.166L443.586,202.971L448.207,188.709L452.828,185.966L457.448,185.966L462.069,196.389L466.69,194.743L471.31,191.451L485.172,189.806L489.793,193.646L499.034,200.777L503.655,205.166L508.276,202.423L517.517,198.034L522.138,200.777L526.759,205.166L531.379,218.88L536,234.24L545.241,213.394L549.862,210.103L554.483,207.36L559.103,211.2L563.724,214.491L568.345,205.166L572.966,188.709L577.586,210.651L582.207,217.234L591.448,213.394L596.069,218.331L600.69,207.909L605.31,209.554L609.931,202.971L614.552,193.646L619.172,185.966L623.793,196.937L628.414,200.229L633.034,215.04L637.655,231.497L642.276,242.469L651.517,267.703L656.138,281.966L660.759,298.423L665.379,292.937L674.621,283.063L679.241,270.994L683.862,262.766L688.483,249.051L693.103,241.371L702.345,220.526L711.586,213.394L716.207,218.331L799.379,206.811L804,198.583" stroke="red" stroke-width="2" stroke-dasharray="5,5"/></g><g class="mark-symbol role-mark view_1_marks" role="graphics-object" aria-roledescription="symbol mark container"><path aria-label="Date: Aug 10, 2023; Counts: 73; 7-Day Avg: 0" role="graphics-symbol" aria-roledescription="point" transform="translate(0,192)" d="M2.739,0A2.739,2.739,0,1,1,-2.739,0A2.739,2.739,0,1,1,2.739,0" stroke="#83C9FF" stroke-width="2" opacity="0"/><path aria-label="Date: Aug 11, 2023; Counts: 91; 7-Day Avg: 0" role="graphics-symbol" aria-roledescription="point" transform="translate(4.620689655172414,192)" d="M2.739,0A2.739,2.739,0,1,1,-2.739,0A2.739,2.739,0,1,1,2.739,0" stroke="#83C9FF" stroke-width="2" opacity="0"/><path aria-label="Date: Aug 12, 2023; Counts: 57; 7-Day Avg: 0" role="graphics-symbol" aria-roledescription="point" transform="translate(9.241379310344827,192)" d="M2.739,0A2.739,2.739,0,1,1,-2.739,0A2.739,2.739,0,1,1,2.739,0" stroke="#83C9FF" stroke-width="2" opacity="0"/><path aria-label="Date: Aug 13, 2023; Counts: 89; 7-Day Avg: 0" role="graphics-symbol" aria-roledescription="point" transform="translate(13.862068965517242,192)" d="M2.739,0A2.739,2.739,0,1,1,-2.739,0A2.739,2.739,0,1,1,2.739,0" stroke="#83C9FF" stroke-width="2" opacity="0"/><path aria-label="Date: Aug 14, 2023; Counts: 76; 7-Day Avg: 0" role="graphics-symbol" aria-roledescription="point" transform="translate(18.482758620689655,192)" d="M2.739,0A2.739,2.739,0,1,1,-2.739,0A2.739,2.739,0,1,1,2.739,0" stroke="#83C9FF" stroke-width="2" opacity="0"/><path aria-label="Date: Aug 15, 2023; Counts: 71; 7-Day Avg: 0" role="graphics-symbol" aria-roledescription="point" transform="translate(23.103448275862068,192)" d="M2.739,0A2.739,2.739,0,1,1,-2.739,0A2.739,2.739,0,1,1,2.739,0" stroke="#83C9FF" stroke-width="2" opacity="0"/><path aria-label="Date: Aug 16, 2023; Counts: 90; 7-Day Avg: 78" role="graphics-symbol" aria-roledescription="point" transform="translate(27.724137931034484,192)" d="M2.739,0A2.739,2.739,0,1,1,-2.739,0A2.739,2.739,0,1,1,2.739,0" stroke="#83C9FF" stroke-width="2" opacity="0"/><path aria-label="Date: Aug 18, 2023; Counts: 91; 7-Day Avg: 81" role="graphics-symbol" aria-roledescription="point" transform="translate(36.96551724137931,192)" d="M2.739,0A2.739,2.739,0,1,1,-2.739,0A2.739,2.739,0,1,1,2.739,0" stroke="#83C9FF" stroke-width="2" opacity="0"/><path aria-label="Date: Aug 19, 2023; Counts: 54; 7-Day Avg: 75" role="graphics-symbol" aria-roledescription="point" transform="translate(41.58620689655172,192)" d="M2.739,0A2.739,2.739,0,1,1,-2.739,0A2.739,2.739,0,1,1,2.739,0" stroke="#83C9FF" stroke-width="2" opacity="0"/><path aria-label="Date: Aug 22, 2023; Counts: 73; 7-Day Avg: 78" role="graphics-symbol" aria-roledescription="point" transform="translate(55.44827586206897,192)" d="M2.739,0A2.739,2.739,0,1,1,-2.739,0A2.739,2.739,0,1,1,2.739,0" stroke="#83C9FF" stroke-width="2" opacity="0"/><path aria-label="Date: Aug 23, 2023; Counts: 72; 7-Day Avg: 75" role="graphics-symbol" aria-roledescription="point" transform="translate(60.06896551724138,192)" d="M2.739,0A2.739,2.739,0,1,1,-2.739,0A2.739,2.739,0,1,1,2.739,0" stroke="#83C9FF" stroke-width="2" opacity="0"/><path aria-label="Date: Aug 24, 2023; Counts: 59; 7-Day Avg: 73" role="graphics-symbol" aria-roledescription="point" transform="translate(64.6896551724138,192)" d="M2.739,0A2.739,2.739,0,1,1,-2.739,0A2.739,2.739,0,1,1,2.739,0" stroke="#83C9FF" stroke-width="2" opacity="0"/><path aria-label="Date: Aug 25, 2023; Counts: 60; 7-Day Avg: 71" role="graphics-symbol" aria-roledescription="point" transform="translate(69.3103448275862,192)" d="M2.739,0A2.739,2.739,0,1,1,-2.739,0A2.739,2.739,0,1,1,2.739,0" stroke="#83C9FF" stroke-width="2" opacity="0"/><path aria-label="Date: Aug 26, 2023; Counts: 53; 7-Day Avg: 66" role="graphics-symbol" aria-roledescription="point" transform="translate(73.93103448275862,192)" d="M2.739,0A2.739,2.739,0,1,1,-2.739,0A2.739,2.739,0,1,1,2.739,0" stroke="#83C9FF" stroke-width="2" opacity="0"/><path aria-label="Date: Aug 27, 2023; Counts: 47; 7-Day Avg: 60" role="graphics-symbol" aria-roledescription="point" transform="translate(78.55172413793103,192)" d="M2.739,0A2.739,2.739,0,1,1,-2.739,0A2.739,2.739,0,1,1,2.739,0" stroke="#83C9FF" stroke-width="2" opacity="0"/><path aria-label="Date: Aug 28, 2023; Counts: 58; 7-Day Avg: 60" role="graphics-symbol" aria-roledescription="point" transform="translate(83.17241379310344,192)" d="M2.739,0A2.739,2.739,0,1,1,-2.739,0A2.739,2.739,0,1,1,2.739,0" stroke="#83C9FF" stroke-width="2" opacity="0"/><path aria-label="Date: Aug 29, 2023; Counts: 93; 7-Day Avg: 63" role="graphics-symbol" aria-roledescription="point" transform="translate(87.79310344827587,192)" d="M2.739,0A2.739,2.739,0,1,1,-2.739,0A2.739,2.739,0,1,1,2.739,0" stroke="#83C9FF" stroke-width="2" opacity="0"/><path aria-label="Date: Aug 30, 2023; Counts: 44; 7-Day Avg: 59" role="graphics-symbol" aria-roledescription="point" transform="translate(92.41379310344827,192)" d="M2.739,0A2.739,2.739,0,1,1,-2.739,0A2.739,2.739,0,1,1,2.739,0" stroke="#83C9FF" stroke-width="2" opacity="0"/><path aria-label="Date: Aug 31, 2023; Counts: 49; 7-Day Avg: 58" role="graphics-symbol" aria-roledescription="point" transform="translate(97.0344827586207,192)" d="M2.739,0A2.739,2.739,0,1,1,-2.739,0A2.739,2.739,0,1,1,2.739,0" stroke="#83C9FF" stroke-width="2" opacity="0"/><path aria-label="Date: Sep 01, 2023; Counts: 64; 7-Day Avg: 58" role="graphics-symbol" aria-roledescription="point" transform="translate(101.65517241379311,192)" d="M2.739,0A2.739,2.739,0,1,1,-2.739,0A2.739,2.739,0,1,1,2.739,0" stroke="#83C9FF" stroke-width="2" opacity="0"/><path aria-label="Date: Sep 02, 2023; Counts: 54; 7-Day Avg: 58" role="graphics-symbol" aria-roledescription="point" transform="translate(106.27586206896552,192)" d="M2.739,0A2.739,2.739,0,1,1,-2.739,0A2.739,2.739,0,1,1,2.739,0" stroke="#83C9FF" stroke-width="2" opacity="0"/><path aria-label="Date: Sep 03, 2023; Counts: 52; 7-Day Avg: 59" role="graphics-symbol" aria-roledescription="point" transform="translate(110.89655172413794,192)" d="M2.739,0A2.739,2.739,0,1,1,-2.739,0A2.739,2.739,0,1,1,2.739,0" stroke="#83C9FF" stroke-width="2" opacity="0"/><path aria-label="Date: Sep 04, 2023; Counts: 68; 7-Day Avg: 61" role="graphics-symbol" aria-roledescription="point" transform="translate(115.51724137931033,192)" d="M2.739,0A2.739,2.739,0,1,1,-2.739,0A2.739,2.739,0,1,1,2.739,0" stroke="#83C9FF" stroke-width="2" opacity="0"/><path aria-label="Date: Sep 05, 2023; Counts: 48; 7-Day Avg: 54" role="graphics-symbol" aria-roledescription="point" transform="translate(120.13793103448276,192)" d="M2.739,0A2.739,2.739,0,1,1,-2.739,0A2.739,2.739,0,1,1,2.739,0" stroke="#83C9FF" stroke-width="2" opacity="0"/><path aria-label="Date: Sep 06, 2023; Counts: 63; 7-Day Avg: 57" role="graphics-symbol" aria-roledescription="point" transform="translate(124.75862068965517,192)" d="M2.739,0A2.739,2.739,0,1,1,-2.739,0A2.739,2.739,0,1,1,2.739,0" stroke="#83C9FF" stroke-width="2" opacity="0"/><path aria-label="Date: Sep 07, 2023; Counts: 58; 7-Day Avg: 58" role="graphics-symbol" aria-roledescription="point" transform="translate(129.3793103448276,192)" d="M2.739,0A2.739,2.739,0,1,1,-2.739,0A2.739,2.739,0,1,1,2.739,0" stroke="#83C9FF" stroke-width="2" opacity="0"/><path aria-label="Date: Sep 08, 2023; Counts: 45; 7-Day Avg: 55" role="graphics-symbol" aria-roledescription="point" transform="translate(134,192)" d="M2.739,0A2.739,2.739,0,1,1,-2.739,0A2.739,2.739,0,1,1,2.739,0" stroke="#83C9FF" stroke-width="2" opacity="0"/><path aria-label="Date: Sep 09, 2023; Counts: 54; 7-Day Avg: 55" role="graphics-symbol" aria-roledescription="point" transform="translate(138.6206896551724,192)" d="M2.739,0A2.739,2.739,0,1,1,-2.739,0A2.739,2.739,0,1,1,2.739,0" stroke="#83C9FF" stroke-width="2" opacity="0"/><path aria-label="Date: Sep 11, 2023; Counts: 54; 7-Day Avg: 56" role="graphics-symbol" aria-roledescription="point" transform="translate(147.86206896551724,192)" d="M2.739,0A2.739,2.739,0,1,1,-2.739,0A2.739,2.739,0,1,1,2.739,0" stroke="#83C9FF" stroke-width="2" opacity="0"/><path aria-label="Date: Sep 12, 2023; Counts: 57; 7-Day Avg: 54" role="graphics-symbol" aria-roledescription="point" transform="translate(152.48275862068965,192)" d="M2.739,0A2.739,2.739,0,1,1,-2.739,0A2.739,2.739,0,1,1,2.739,0" stroke="#83C9FF" stroke-width="2" opacity="0"/><path aria-label="Date: Sep 13, 2023; Counts: 70; 7-Day Avg: 57" role="graphics-symbol" aria-roledescription="point" transform="translate(157.10344827586206,192)" d="M2.739,0A2.739,2.739,0,1,1,-2.739,0A2.739,2.739,0,1,1,2.739,0" stroke="#83C9FF" stroke-width="2" opacity="0"/><path aria-label="Date: Sep 14, 2023; Counts: 19; 7-Day Avg: 51" role="graphics-symbol" aria-roledescription="point" transform="translate(161.72413793103448,192)" d="M2.739,0A2.739,2.739,0,1,1,-2.739,0A2.739,2.739,0,1,1,2.739,0" stroke="#83C9FF" stroke-width="2" opacity="0"/><path aria-label="Date: Sep 15, 2023; Counts: 48; 7-Day Avg: 50" role="graphics-symbol" aria-roledescription="point" transform="translate(166.3448275862069,192)" d="M2.739,0A2.739,2.739,0,1,1,-2.739,0A2.739,2.739,0,1,1,2.739,0" stroke="#83C9FF" stroke-width="2" opacity="0"/><path aria-label="Date: Sep 16, 2023; Counts: 34; 7-Day Avg: 48" role="graphics-symbol" aria-roledescription="point" transform="translate(170.9655172413793,192)" d="M2.739,0A2.739,2.739,0,1,1,-2.739,0A2.739,2.739,0,1,1,2.739,0" stroke="#83C9FF" stroke-width="2" opacity="0"/><path aria-label="Date: Sep 17, 2023; Counts: 27; 7-Day Avg: 44" role="graphics-symbol" aria-roledescription="point" transform="translate(175.58620689655174,192)" d="M2.739,0A2.739,2.739,0,1,1,-2.739,0A2.739,2.739,0,1,1,2.739,0" stroke="#83C9FF" stroke-width="2" opacity="0"/><path aria-label="Date: Sep 18, 2023; Counts: 50; 7-Day Avg: 44" role="graphics-symbol" aria-roledescription="point" transform="translate(180.20689655172413,192)" d="M2.739,0A2.739,2.739,0,1,1,-2.739,0A2.739,2.739,0,1,1,2.739,0" stroke="#83C9FF" stroke-width="2" opacity="0"/><path aria-label="Date: Sep 19, 2023; Counts: 61; 7-Day Avg: 44" role="graphics-symbol" aria-roledescription="point" transform="translate(184.82758620689654,192)" d="M2.739,0A2.739,2.739,0,1,1,-2.739,0A2.739,2.739,0,1,1,2.739,0" stroke="#83C9FF" stroke-width="2" opacity="0"/><path aria-label="Date: Sep 20, 2023; Counts: 62; 7-Day Avg: 43" role="graphics-symbol" aria-roledescription="point" transform="translate(189.44827586206895,192)" d="M2.739,0A2.739,2.739,0,1,1,-2.739,0A2.739,2.739,0,1,1,2.739,0" stroke="#83C9FF" stroke-width="2" opacity="0"/><path aria-label="Date: Sep 21, 2023; Counts: 64; 7-Day Avg: 49" role="graphics-symbol" aria-roledescription="point" transform="translate(194.0689655172414,192)" d="M2.739,0A2.739,2.739,0,1,1,-2.739,0A2.739,2.739,0,1,1,2.739,0" stroke="#83C9FF" stroke-width="2" opacity="0"/><path aria-label="Date: Sep 22, 2023; Counts: 52; 7-Day Avg: 50" role="graphics-symbol" aria-roledescription="point" transform="translate(198.6896551724138,192)" d="M2.739,0A2.739,2.739,0,1,1,-2.739,0A2.739,2.739,0,1,1,2.739,0" stroke="#83C9FF" stroke-width="2" opacity="0"/><path aria-label="Date: Sep 23, 2023; Counts: 44; 7-Day Avg: 51" role="graphics-symbol" aria-roledescription="point" transform="translate(203.31034482758622,192)" d="M2.739,0A2.739,2.739,0,1,1,-2.739,0A2.739,2.739,0,1,1,2.739,0" stroke="#83C9FF" stroke-width="2" opacity="0"/><path aria-label="Date: Sep 24, 2023; Counts: 27; 7-Day Avg: 51" role="graphics-symbol" aria-roledescription="point" transform="translate(207.93103448275863,192)" d="M2.739,0A2.739,2.739,0,1,1,-2.739,0A2.739,2.739,0,1,1,2.739,0" stroke="#83C9FF" stroke-width="2" opacity="0"/><path aria-label="Date: Sep 25, 2023; Counts: 48; 7-Day Avg: 51" role="graphics-symbol" aria-roledescription="point" transform="translate(212.55172413793105,192)" d="M2.739,0A2.739,2.739,0,1,1,-2.739,0A2.739,2.739,0,1,1,2.739,0" stroke="#83C9FF" stroke-width="2" opacity="0"/><path aria-label="Date: Sep 26, 2023; Counts: 51; 7-Day Avg: 50" role="graphics-symbol" aria-roledescription="point" transform="translate(217.17241379310346,192)" d="M2.739,0A2.739,2.739,0,1,1,-2.739,0A2.739,2.739,0,1,1,2.739,0" stroke="#83C9FF" stroke-width="2" opacity="0"/><path aria-label="Date: Sep 27, 2023; Counts: 57; 7-Day Avg: 49" role="graphics-symbol" aria-roledescription="point" transform="translate(221.79310344827587,192)" d="M2.739,0A2.739,2.739,0,1,1,-2.739,0A2.739,2.739,0,1,1,2.739,0" stroke="#83C9FF" stroke-width="2" opacity="0"/><path aria-label="Date: Sep 28, 2023; Counts: 46; 7-Day Avg: 46" role="graphics-symbol" aria-roledescription="point" transform="translate(226.41379310344826,192)" d="M2.739,0A2.739,2.739,0,1,1,-2.739,0A2.739,2.739,0,1,1,2.739,0" stroke="#83C9FF" stroke-width="2" opacity="0"/><path aria-label="Date: Sep 29, 2023; Counts: 52; 7-Day Avg: 46" role="graphics-symbol" aria-roledescription="point" transform="translate(231.03448275862067,192)" d="M2.739,0A2.739,2.739,0,1,1,-2.739,0A2.739,2.739,0,1,1,2.739,0" stroke="#83C9FF" stroke-width="2" opacity="0"/><path aria-label="Date: Sep 30, 2023; Counts: 50; 7-Day Avg: 47" role="graphics-symbol" aria-roledescription="point" transform="translate(235.65517241379308,192)" d="M2.739,0A2.739,2.739,0,1,1,-2.739,0A2.739,2.739,0,1,1,2.739,0" stroke="#83C9FF" stroke-width="2" opacity="0"/><path aria-label="Date: Oct 01, 2023; Counts: 41; 7-Day Avg: 49" role="graphics-symbol" aria-roledescription="point" transform="translate(240.27586206896552,192)" d="M2.739,0A2.739,2.739,0,1,1,-2.739,0A2.739,2.739,0,1,1,2.739,0" stroke="#83C9FF" stroke-width="2" opacity="0"/><path aria-label="Date: Oct 02, 2023; Counts: 53; 7-Day Avg: 50" role="graphics-symbol" aria-roledescription="point" transform="translate(244.89655172413794,192)" d="M2.739,0A2.739,2.739,0,1,1,-2.739,0A2.739,2.739,0,1,1,2.739,0" stroke="#83C9FF" stroke-width="2" opacity="0"/><path aria-label="Date: Oct 03, 2023; Counts: 52; 7-Day Avg: 50" role="graphics-symbol" aria-roledescription="point" transform="translate(249.51724137931035,192)" d="M2.739,0A2.739,2.739,0,1,1,-2.739,0A2.739,2.739,0,1,1,2.739,0" stroke="#83C9FF" stroke-width="2" opacity="0"/><path aria-label="Date: Oct 04, 2023; Counts: 63; 7-Day Avg: 51" role="graphics-symbol" aria-roledescription="point" transform="translate(254.13793103448276,192)" d="M2.739,0A2.739,2.739,0,1,1,-2.739,0A2.739,2.739,0,1,1,2.739,0" stroke="#83C9FF" stroke-width="2" opacity="0"/><path aria-label="Date: Oct 05, 2023; Counts: 7; 7-Day Avg: 45" role="graphics-symbol" aria-roledescription="point" transform="translate(258.7586206896552,192)" d="M2.739,0A2.739,2.739,0,1,1,-2.739,0A2.739,2.739,0,1,1,2.739,0" stroke="#83C9FF" stroke-width="2" opacity="0"/><path aria-label="Date: Oct 06, 2023; Counts: 9; 7-Day Avg: 39" role="graphics-symbol" aria-roledescription="point" transform="translate(263.37931034482756,192)" d="M2.739,0A2.739,2.739,0,1,1,-2.739,0A2.739,2.739,0,1,1,2.739,0" stroke="#83C9FF" stroke-width="2" opacity="0"/><path aria-label="Date: Oct 07, 2023; Counts: 65; 7-Day Avg: 41" role="graphics-symbol" aria-roledescription="point" transform="translate(268,192)" d="M2.739,0A2.739,2.739,0,1,1,-2.739,0A2.739,2.739,0,1,1,2.739,0" stroke="#83C9FF" stroke-width="2" opacity="0"/><path aria-label="Date: Oct 08, 2023; Counts: 40; 7-Day Avg: 41" role="graphics-symbol" aria-roledescription="point" transform="translate(272.6206896551724,192)" d="M2.739,0A2.739,2.739,0,1,1,-2.739,0A2.739,2.739,0,1,1,2.739,0" stroke="#83C9FF" stroke-width="2" opacity="0"/><path aria-label="Date: Oct 09, 2023; Counts: 77; 7-Day Avg: 45" role="graphics-symbol" aria-roledescription="point" transform="translate(277.2413793103448,192)" d="M2.739,0A2.739,2.739,0,1,1,-2.739,0A2.739,2.739,0,1,1,2.739,0" stroke="#83C9FF" stroke-width="2" opacity="0"/><path aria-label="Date: Oct 12, 2023; Counts: 59; 7-Day Avg: 46" role="graphics-symbol" aria-roledescription="point" transform="translate(291.1034482758621,192)" d="M2.739,0A2.739,2.739,0,1,1,-2.739,0A2.739,2.739,0,1,1,2.739,0" stroke="#83C9FF" stroke-width="2" opacity="0"/><path aria-label="Date: Oct 13, 2023; Counts: 66; 7-Day Avg: 46" role="graphics-symbol" aria-roledescription="point" transform="translate(295.7241379310345,192)" d="M2.739,0A2.739,2.739,0,1,1,-2.739,0A2.739,2.739,0,1,1,2.739,0" stroke="#83C9FF" stroke-width="2" opacity="0"/><path aria-label="Date: Oct 15, 2023; Counts: 53; 7-Day Avg: 53" role="graphics-symbol" aria-roledescription="point" transform="translate(304.9655172413793,192)" d="M2.739,0A2.739,2.739,0,1,1,-2.739,0A2.739,2.739,0,1,1,2.739,0" stroke="#83C9FF" stroke-width="2" opacity="0"/><path aria-label="Date: Oct 16, 2023; Counts: 55; 7-Day Avg: 59" role="graphics-symbol" aria-roledescription="point" transform="translate(309.5862068965517,192)" d="M2.739,0A2.739,2.739,0,1,1,-2.739,0A2.739,2.739,0,1,1,2.739,0" stroke="#83C9FF" stroke-width="2" opacity="0"/><path aria-label="Date: Oct 17, 2023; Counts: 85; 7-Day Avg: 62" role="graphics-symbol" aria-roledescription="point" transform="translate(314.2068965517241,192)" d="M2.739,0A2.739,2.739,0,1,1,-2.739,0A2.739,2.739,0,1,1,2.739,0" stroke="#83C9FF" stroke-width="2" opacity="0"/><path aria-label="Date: Oct 18, 2023; Counts: 67; 7-Day Avg: 66" role="graphics-symbol" aria-roledescription="point" transform="translate(318.82758620689657,192)" d="M2.739,0A2.739,2.739,0,1,1,-2.739,0A2.739,2.739,0,1,1,2.739,0" stroke="#83C9FF" stroke-width="2" opacity="0"/><path aria-label="Date: Oct 19, 2023; Counts: 62; 7-Day Avg: 64" role="graphics-symbol" aria-roledescription="point" transform="translate(323.44827586206895,192)" d="M2.739,0A2.739,2.739,0,1,1,-2.739,0A2.739,2.739,0,1,1,2.739,0" stroke="#83C9FF" stroke-width="2" opacity="0"/><path aria-label="Date: Oct 20, 2023; Counts: 47; 7-Day Avg: 62" role="graphics-symbol" aria-roledescription="point" transform="translate(328.0689655172414,192)" d="M2.739,0A2.739,2.739,0,1,1,-2.739,0A2.739,2.739,0,1,1,2.739,0" stroke="#83C9FF" stroke-width="2" opacity="0"/><path aria-label="Date: Oct 21, 2023; Counts: 58; 7-Day Avg: 61" role="graphics-symbol" aria-roledescription="point" transform="translate(332.6896551724138,192)" d="M2.739,0A2.739,2.739,0,1,1,-2.739,0A2.739,2.739,0,1,1,2.739,0" stroke="#83C9FF" stroke-width="2" opacity="0"/><path aria-label="Date: Oct 22, 2023; Counts: 58; 7-Day Avg: 62" role="graphics-symbol" aria-roledescription="point" transform="translate(337.3103448275862,192)" d="M2.739,0A2.739,2.739,0,1,1,-2.739,0A2.739,2.739,0,1,1,2.739,0" stroke="#83C9FF" stroke-width="2" opacity="0"/><path aria-label="Date: Oct 23, 2023; Counts: 59; 7-Day Avg: 62" role="graphics-symbol" aria-roledescription="point" transform="translate(341.9310344827586,192)" d="M2.739,0A2.739,2.739,0,1,1,-2.739,0A2.739,2.739,0,1,1,2.739,0" stroke="#83C9FF" stroke-width="2" opacity="0"/><path aria-label="Date: Oct 24, 2023; Counts: 50; 7-Day Avg: 57" role="graphics-symbol" aria-roledescription="point" transform="translate(346.551724137931,192)" d="M2.739,0A2.739,2.739,0,1,1,-2.739,0A2.739,2.739,0,1,1,2.739,0" stroke="#83C9FF" stroke-width="2" opacity="0"/><path aria-label="Date: Oct 25, 2023; Counts: 50; 7-Day Avg: 55" role="graphics-symbol" aria-roledescription="point" transform="translate(351.1724137931035,192)" d="M2.739,0A2.739,2.739,0,1,1,-2.739,0A2.739,2.739,0,1,1,2.739,0" stroke="#83C9FF" stroke-width="2" opacity="0"/><path aria-label="Date: Oct 26, 2023; Counts: 55; 7-Day Avg: 54" role="graphics-symbol" aria-roledescription="point" transform="translate(355.7931034482759,192)" d="M2.739,0A2.739,2.739,0,1,1,-2.739,0A2.739,2.739,0,1,1,2.739,0" stroke="#83C9FF" stroke-width="2" opacity="0"/><path aria-label="Date: Oct 28, 2023; Counts: 35; 7-Day Avg: 52" role="graphics-symbol" aria-roledescription="point" transform="translate(365.0344827586207,192)" d="M2.739,0A2.739,2.739,0,1,1,-2.739,0A2.739,2.739,0,1,1,2.739,0" stroke="#83C9FF" stroke-width="2" opacity="0"/><path aria-label="Date: Oct 29, 2023; Counts: 45; 7-Day Avg: 50" role="graphics-symbol" aria-roledescription="point" transform="translate(369.6551724137931,192)" d="M2.739,0A2.739,2.739,0,1,1,-2.739,0A2.739,2.739,0,1,1,2.739,0" stroke="#83C9FF" stroke-width="2" opacity="0"/><path aria-label="Date: Nov 01, 2023; Counts: 55; 7-Day Avg: 50" role="graphics-symbol" aria-roledescription="point" transform="translate(383.51724137931035,192)" d="M2.739,0A2.739,2.739,0,1,1,-2.739,0A2.739,2.739,0,1,1,2.739,0" stroke="#83C9FF" stroke-width="2" opacity="0"/><path aria-label="Date: Nov 02, 2023; Counts: 55; 7-Day Avg: 49" role="graphics-symbol" aria-roledescription="point" transform="translate(388.1379310344828,192)" d="M2.739,0A2.739,2.739,0,1,1,-2.739,0A2.739,2.739,0,1,1,2.739,0" stroke="#83C9FF" stroke-width="2" opacity="0"/><path aria-label="Date: Nov 03, 2023; Counts: 51; 7-Day Avg: 49" role="graphics-symbol" aria-roledescription="point" transform="translate(392.7586206896552,192)" d="M2.739,0A2.739,2.739,0,1,1,-2.739,0A2.739,2.739,0,1,1,2.739,0" stroke="#83C9FF" stroke-width="2" opacity="0"/><path aria-label="Date: Nov 04, 2023; Counts: 43; 7-Day Avg: 48" role="graphics-symbol" aria-roledescription="point" transform="translate(397.3793103448276,192)" d="M2.739,0A2.739,2.739,0,1,1,-2.739,0A2.739,2.739,0,1,1,2.739,0" stroke="#83C9FF" stroke-width="2" opacity="0"/><path aria-label="Date: Nov 05, 2023; Counts: 43; 7-Day Avg: 47" role="graphics-symbol" aria-roledescription="point" transform="translate(402,192)" d="M2.739,0A2.739,2.739,0,1,1,-2.739,0A2.739,2.739,0,1,1,2.739,0" stroke="#83C9FF" stroke-width="2" opacity="0"/><path aria-label="Date: Nov 06, 2023; Counts: 46; 7-Day Avg: 48" role="graphics-symbol" aria-roledescription="point" transform="translate(406.62068965517244,192)" d="M2.739,0A2.739,2.739,0,1,1,-2.739,0A2.739,2.739,0,1,1,2.739,0" stroke="#83C9FF" stroke-width="2" opacity="0"/><path aria-label="Date: Nov 07, 2023; Counts: 53; 7-Day Avg: 49" role="graphics-symbol" aria-roledescription="point" transform="translate(411.2413793103448,192)" d="M2.739,0A2.739,2.739,0,1,1,-2.739,0A2.739,2.739,0,1,1,2.739,0" stroke="#83C9FF" stroke-width="2" opacity="0"/><path aria-label="Date: Nov 08, 2023; Counts: 56; 7-Day Avg: 50" role="graphics-symbol" aria-roledescription="point" transform="translate(415.86206896551727,192)" d="M2.739,0A2.739,2.739,0,1,1,-2.739,0A2.739,2.739,0,1,1,2.739,0" stroke="#83C9FF" stroke-width="2" opacity="0"/><path aria-label="Date: Nov 10, 2023; Counts: 40; 7-Day Avg: 47" role="graphics-symbol" aria-roledescription="point" transform="translate(425.1034482758621,192)" d="M2.739,0A2.739,2.739,0,1,1,-2.739,0A2.739,2.739,0,1,1,2.739,0" stroke="#83C9FF" stroke-width="2" opacity="0"/><path aria-label="Date: Nov 12, 2023; Counts: 45; 7-Day Avg: 47" role="graphics-symbol" aria-roledescription="point" transform="translate(434.3448275862069,192)" d="M2.739,0A2.739,2.739,0,1,1,-2.739,0A2.739,2.739,0,1,1,2.739,0" stroke="#83C9FF" stroke-width="2" opacity="0"/><path aria-label="Date: Nov 14, 2023; Counts: 47; 7-Day Avg: 47" role="graphics-symbol" aria-roledescription="point" transform="translate(443.58620689655174,192)" d="M2.739,0A2.739,2.739,0,1,1,-2.739,0A2.739,2.739,0,1,1,2.739,0" stroke="#83C9FF" stroke-width="2" opacity="0"/><path aria-label="Date: Nov 15, 2023; Counts: 69; 7-Day Avg: 51" role="graphics-symbol" aria-roledescription="point" transform="translate(448.2068965517242,192)" d="M2.739,0A2.739,2.739,0,1,1,-2.739,0A2.739,2.739,0,1,1,2.739,0" stroke="#83C9FF" stroke-width="2" opacity="0"/><path aria-label="Date: Nov 16, 2023; Counts: 51; 7-Day Avg: 52" role="graphics-symbol" aria-roledescription="point" transform="translate(452.8275862068965,192)" d="M2.739,0A2.739,2.739,0,1,1,-2.739,0A2.739,2.739,0,1,1,2.739,0" stroke="#83C9FF" stroke-width="2" opacity="0"/><path aria-label="Date: Nov 17, 2023; Counts: 53; 7-Day Avg: 52" role="graphics-symbol" aria-roledescription="point" transform="translate(457.448275862069,192)" d="M2.739,0A2.739,2.739,0,1,1,-2.739,0A2.739,2.739,0,1,1,2.739,0" stroke="#83C9FF" stroke-width="2" opacity="0"/><path aria-label="Date: Nov 18, 2023; Counts: 37; 7-Day Avg: 49" role="graphics-symbol" aria-roledescription="point" transform="translate(462.06896551724134,192)" d="M2.739,0A2.739,2.739,0,1,1,-2.739,0A2.739,2.739,0,1,1,2.739,0" stroke="#83C9FF" stroke-width="2" opacity="0"/><path aria-label="Date: Nov 19, 2023; Counts: 43; 7-Day Avg: 49" role="graphics-symbol" aria-roledescription="point" transform="translate(466.6896551724138,192)" d="M2.739,0A2.739,2.739,0,1,1,-2.739,0A2.739,2.739,0,1,1,2.739,0" stroke="#83C9FF" stroke-width="2" opacity="0"/><path aria-label="Date: Nov 20, 2023; Counts: 51; 7-Day Avg: 50" role="graphics-symbol" aria-roledescription="point" transform="translate(471.31034482758616,192)" d="M2.739,0A2.739,2.739,0,1,1,-2.739,0A2.739,2.739,0,1,1,2.739,0" stroke="#83C9FF" stroke-width="2" opacity="0"/><path aria-label="Date: Nov 23, 2023; Counts: 50; 7-Day Avg: 51" role="graphics-symbol" aria-roledescription="point" transform="translate(485.17241379310343,192)" d="M2.739,0A2.739,2.739,0,1,1,-2.739,0A2.739,2.739,0,1,1,2.739,0" stroke="#83C9FF" stroke-width="2" opacity="0"/><path aria-label="Date: Nov 24, 2023; Counts: 62; 7-Day Avg: 50" role="graphics-symbol" aria-roledescription="point" transform="translate(489.7931034482759,192)" d="M2.739,0A2.739,2.739,0,1,1,-2.739,0A2.739,2.739,0,1,1,2.739,0" stroke="#83C9FF" stroke-width="2" opacity="0"/><path aria-label="Date: Nov 26, 2023; Counts: 38; 7-Day Avg: 48" role="graphics-symbol" aria-roledescription="point" transform="translate(499.0344827586207,192)" d="M2.739,0A2.739,2.739,0,1,1,-2.739,0A2.739,2.739,0,1,1,2.739,0" stroke="#83C9FF" stroke-width="2" opacity="0"/><path aria-label="Date: Nov 27, 2023; Counts: 45; 7-Day Avg: 47" role="graphics-symbol" aria-roledescription="point" transform="translate(503.6551724137931,192)" d="M2.739,0A2.739,2.739,0,1,1,-2.739,0A2.739,2.739,0,1,1,2.739,0" stroke="#83C9FF" stroke-width="2" opacity="0"/><path aria-label="Date: Nov 28, 2023; Counts: 42; 7-Day Avg: 47" role="graphics-symbol" aria-roledescription="point" transform="translate(508.2758620689655,192)" d="M2.739,0A2.739,2.739,0,1,1,-2.739,0A2.739,2.739,0,1,1,2.739,0" stroke="#83C9FF" stroke-width="2" opacity="0"/><path aria-label="Date: Nov 30, 2023; Counts: 51; 7-Day Avg: 48" role="graphics-symbol" aria-roledescription="point" transform="translate(517.5172413793103,192)" d="M2.739,0A2.739,2.739,0,1,1,-2.739,0A2.739,2.739,0,1,1,2.739,0" stroke="#83C9FF" stroke-width="2" opacity="0"/><path aria-label="Date: Dec 01, 2023; Counts: 46; 7-Day Avg: 48" role="graphics-symbol" aria-roledescription="point" transform="translate(522.1379310344828,192)" d="M2.739,0A2.739,2.739,0,1,1,-2.739,0A2.739,2.739,0,1,1,2.739,0" stroke="#83C9FF" stroke-width="2" opacity="0"/><path aria-label="Date: Dec 02, 2023; Counts: 42; 7-Day Avg: 47" role="graphics-symbol" aria-roledescription="point" transform="translate(526.7586206896551,192)" d="M2.739,0A2.739,2.739,0,1,1,-2.739,0A2.739,2.739,0,1,1,2.739,0" stroke="#83C9FF" stroke-width="2" opacity="0"/><path aria-label="Date: Dec 03, 2023; Counts: 37; 7-Day Avg: 43" role="graphics-symbol" aria-roledescription="point" transform="translate(531.3793103448276,192)" d="M2.739,0A2.739,2.739,0,1,1,-2.739,0A2.739,2.739,0,1,1,2.739,0" stroke="#83C9FF" stroke-width="2" opacity="0"/><path aria-label="Date: Dec 04, 2023; Counts: 10; 7-Day Avg: 39" role="graphics-symbol" aria-roledescription="point" transform="translate(536,192)" d="M2.739,0A2.739,2.739,0,1,1,-2.739,0A2.739,2.739,0,1,1,2.739,0" stroke="#83C9FF" stroke-width="2" opacity="0"/><path aria-label="Date: Dec 06, 2023; Counts: 83; 7-Day Avg: 44" role="graphics-symbol" aria-roledescription="point" transform="translate(545.2413793103448,192)" d="M2.739,0A2.739,2.739,0,1,1,-2.739,0A2.739,2.739,0,1,1,2.739,0" stroke="#83C9FF" stroke-width="2" opacity="0"/><path aria-label="Date: Dec 07, 2023; Counts: 48; 7-Day Avg: 45" role="graphics-symbol" aria-roledescription="point" transform="translate(549.8620689655172,192)" d="M2.739,0A2.739,2.739,0,1,1,-2.739,0A2.739,2.739,0,1,1,2.739,0" stroke="#83C9FF" stroke-width="2" opacity="0"/><path aria-label="Date: Dec 08, 2023; Counts: 56; 7-Day Avg: 46" role="graphics-symbol" aria-roledescription="point" transform="translate(554.4827586206897,192)" d="M2.739,0A2.739,2.739,0,1,1,-2.739,0A2.739,2.739,0,1,1,2.739,0" stroke="#83C9FF" stroke-width="2" opacity="0"/><path aria-label="Date: Dec 09, 2023; Counts: 39; 7-Day Avg: 45" role="graphics-symbol" aria-roledescription="point" transform="translate(559.1034482758621,192)" d="M2.739,0A2.739,2.739,0,1,1,-2.739,0A2.739,2.739,0,1,1,2.739,0" stroke="#83C9FF" stroke-width="2" opacity="0"/><path aria-label="Date: Dec 10, 2023; Counts: 36; 7-Day Avg: 44" role="graphics-symbol" aria-roledescription="point" transform="translate(563.7241379310345,192)" d="M2.739,0A2.739,2.739,0,1,1,-2.739,0A2.739,2.739,0,1,1,2.739,0" stroke="#83C9FF" stroke-width="2" opacity="0"/><path aria-label="Date: Dec 11, 2023; Counts: 54; 7-Day Avg: 47" role="graphics-symbol" aria-roledescription="point" transform="translate(568.3448275862069,192)" d="M2.739,0A2.739,2.739,0,1,1,-2.739,0A2.739,2.739,0,1,1,2.739,0" stroke="#83C9FF" stroke-width="2" opacity="0"/><path aria-label="Date: Dec 12, 2023; Counts: 40; 7-Day Avg: 51" role="graphics-symbol" aria-roledescription="point" transform="translate(572.9655172413793,192)" d="M2.739,0A2.739,2.739,0,1,1,-2.739,0A2.739,2.739,0,1,1,2.739,0" stroke="#83C9FF" stroke-width="2" opacity="0"/><path aria-label="Date: Dec 13, 2023; Counts: 43; 7-Day Avg: 45" role="graphics-symbol" aria-roledescription="point" transform="translate(577.5862068965517,192)" d="M2.739,0A2.739,2.739,0,1,1,-2.739,0A2.739,2.739,0,1,1,2.739,0" stroke="#83C9FF" stroke-width="2" opacity="0"/><path aria-label="Date: Dec 14, 2023; Counts: 36; 7-Day Avg: 43" role="graphics-symbol" aria-roledescription="point" transform="translate(582.2068965517242,192)" d="M2.739,0A2.739,2.739,0,1,1,-2.739,0A2.739,2.739,0,1,1,2.739,0" stroke="#83C9FF" stroke-width="2" opacity="0"/><path aria-label="Date: Dec 16, 2023; Counts: 63; 7-Day Avg: 44" role="graphics-symbol" aria-roledescription="point" transform="translate(591.448275862069,192)" d="M2.739,0A2.739,2.739,0,1,1,-2.739,0A2.739,2.739,0,1,1,2.739,0" stroke="#83C9FF" stroke-width="2" opacity="0"/><path aria-label="Date: Dec 17, 2023; Counts: 30; 7-Day Avg: 43" role="graphics-symbol" aria-roledescription="point" transform="translate(596.0689655172414,192)" d="M2.739,0A2.739,2.739,0,1,1,-2.739,0A2.739,2.739,0,1,1,2.739,0" stroke="#83C9FF" stroke-width="2" opacity="0"/><path aria-label="Date: Dec 18, 2023; Counts: 55; 7-Day Avg: 46" role="graphics-symbol" aria-roledescription="point" transform="translate(600.6896551724137,192)" d="M2.739,0A2.739,2.739,0,1,1,-2.739,0A2.739,2.739,0,1,1,2.739,0" stroke="#83C9FF" stroke-width="2" opacity="0"/><path aria-label="Date: Dec 19, 2023; Counts: 51; 7-Day Avg: 45" role="graphics-symbol" aria-roledescription="point" transform="translate(605.3103448275863,192)" d="M2.739,0A2.739,2.739,0,1,1,-2.739,0A2.739,2.739,0,1,1,2.739,0" stroke="#83C9FF" stroke-width="2" opacity="0"/><path aria-label="Date: Dec 20, 2023; Counts: 52; 7-Day Avg: 47" role="graphics-symbol" aria-roledescription="point" transform="translate(609.9310344827586,192)" d="M2.739,0A2.739,2.739,0,1,1,-2.739,0A2.739,2.739,0,1,1,2.739,0" stroke="#83C9FF" stroke-width="2" opacity="0"/><path aria-label="Date: Dec 21, 2023; Counts: 60; 7-Day Avg: 50" role="graphics-symbol" aria-roledescription="point" transform="translate(614.551724137931,192)" d="M2.739,0A2.739,2.739,0,1,1,-2.739,0A2.739,2.739,0,1,1,2.739,0" stroke="#83C9FF" stroke-width="2" opacity="0"/><path aria-label="Date: Dec 22, 2023; Counts: 50; 7-Day Avg: 52" role="graphics-symbol" aria-roledescription="point" transform="translate(619.1724137931034,192)" d="M2.739,0A2.739,2.739,0,1,1,-2.739,0A2.739,2.739,0,1,1,2.739,0" stroke="#83C9FF" stroke-width="2" opacity="0"/><path aria-label="Date: Dec 23, 2023; Counts: 43; 7-Day Avg: 49" role="graphics-symbol" aria-roledescription="point" transform="translate(623.7931034482758,192)" d="M2.739,0A2.739,2.739,0,1,1,-2.739,0A2.739,2.739,0,1,1,2.739,0" stroke="#83C9FF" stroke-width="2" opacity="0"/><path aria-label="Date: Dec 24, 2023; Counts: 24; 7-Day Avg: 48" role="graphics-symbol" aria-roledescription="point" transform="translate(628.4137931034483,192)" d="M2.739,0A2.739,2.739,0,1,1,-2.739,0A2.739,2.739,0,1,1,2.739,0" stroke="#83C9FF" stroke-width="2" opacity="0"/><path aria-label="Date: Dec 25, 2023; Counts: 28; 7-Day Avg: 44" role="graphics-symbol" aria-roledescription="point" transform="translate(633.0344827586207,192)" d="M2.739,0A2.739,2.739,0,1,1,-2.739,0A2.739,2.739,0,1,1,2.739,0" stroke="#83C9FF" stroke-width="2" opacity="0"/><path aria-label="Date: Dec 26, 2023; Counts: 21; 7-Day Avg: 40" role="graphics-symbol" aria-roledescription="point" transform="translate(637.6551724137931,192)" d="M2.739,0A2.739,2.739,0,1,1,-2.739,0A2.739,2.739,0,1,1,2.739,0" stroke="#83C9FF" stroke-width="2" opacity="0"/><path aria-label="Date: Dec 27, 2023; Counts: 32; 7-Day Avg: 37" role="graphics-symbol" aria-roledescription="point" transform="translate(642.2758620689655,192)" d="M2.739,0A2.739,2.739,0,1,1,-2.739,0A2.739,2.739,0,1,1,2.739,0" stroke="#83C9FF" stroke-width="2" opacity="0"/><path aria-label="Date: Dec 29, 2023; Counts: 14; 7-Day Avg: 30" role="graphics-symbol" aria-roledescription="point" transform="translate(651.5172413793103,192)" d="M2.739,0A2.739,2.739,0,1,1,-2.739,0A2.739,2.739,0,1,1,2.739,0" stroke="#83C9FF" stroke-width="2" opacity="0"/><path aria-label="Date: Dec 30, 2023; Counts: 24; 7-Day Avg: 27" role="graphics-symbol" aria-roledescription="point" transform="translate(656.1379310344828,192)" d="M2.739,0A2.739,2.739,0,1,1,-2.739,0A2.739,2.739,0,1,1,2.739,0" stroke="#83C9FF" stroke-width="2" opacity="0"/><path aria-label="Date: Dec 31, 2023; Counts: 13; 7-Day Avg: 22" role="graphics-symbol" aria-roledescription="point" transform="translate(660.7586206896552,192)" d="M2.739,0A2.739,2.739,0,1,1,-2.739,0A2.739,2.739,0,1,1,2.739,0" stroke="#83C9FF" stroke-width="2" opacity="0"/><path aria-label="Date: Jan 01, 2024; Counts: 34; 7-Day Avg: 24" role="graphics-symbol" aria-roledescription="point" transform="translate(665.3793103448276,192)" d="M2.739,0A2.739,2.739,0,1,1,-2.739,0A2.739,2.739,0,1,1,2.739,0" stroke="#83C9FF" stroke-width="2" opacity="0"/><path aria-label="Date: Jan 03, 2024; Counts: 46; 7-Day Avg: 26" role="graphics-symbol" aria-roledescription="point" transform="translate(674.6206896551724,192)" d="M2.739,0A2.739,2.739,0,1,1,-2.739,0A2.739,2.739,0,1,1,2.739,0" stroke="#83C9FF" stroke-width="2" opacity="0"/><path aria-label="Date: Jan 04, 2024; Counts: 43; 7-Day Avg: 29" role="graphics-symbol" aria-roledescription="point" transform="translate(679.2413793103449,192)" d="M2.739,0A2.739,2.739,0,1,1,-2.739,0A2.739,2.739,0,1,1,2.739,0" stroke="#83C9FF" stroke-width="2" opacity="0"/><path aria-label="Date: Jan 05, 2024; Counts: 47; 7-Day Avg: 32" role="graphics-symbol" aria-roledescription="point" transform="translate(683.8620689655172,192)" d="M2.739,0A2.739,2.739,0,1,1,-2.739,0A2.739,2.739,0,1,1,2.739,0" stroke="#83C9FF" stroke-width="2" opacity="0"/><path aria-label="Date: Jan 06, 2024; Counts: 39; 7-Day Avg: 35" role="graphics-symbol" aria-roledescription="point" transform="translate(688.4827586206897,192)" d="M2.739,0A2.739,2.739,0,1,1,-2.739,0A2.739,2.739,0,1,1,2.739,0" stroke="#83C9FF" stroke-width="2" opacity="0"/><path aria-label="Date: Jan 07, 2024; Counts: 38; 7-Day Avg: 37" role="graphics-symbol" aria-roledescription="point" transform="translate(693.103448275862,192)" d="M2.739,0A2.739,2.739,0,1,1,-2.739,0A2.739,2.739,0,1,1,2.739,0" stroke="#83C9FF" stroke-width="2" opacity="0"/><path aria-label="Date: Jan 09, 2024; Counts: 51; 7-Day Avg: 43" role="graphics-symbol" aria-roledescription="point" transform="translate(702.344827586207,192)" d="M2.739,0A2.739,2.739,0,1,1,-2.739,0A2.739,2.739,0,1,1,2.739,0" stroke="#83C9FF" stroke-width="2" opacity="0"/><path aria-label="Date: Jan 11, 2024; Counts: 47; 7-Day Avg: 44" role="graphics-symbol" aria-roledescription="point" transform="translate(711.5862068965517,192)" d="M2.739,0A2.739,2.739,0,1,1,-2.739,0A2.739,2.739,0,1,1,2.739,0" stroke="#83C9FF" stroke-width="2" opacity="0"/><path aria-label="Date: Jan 12, 2024; Counts: 37; 7-Day Avg: 43" role="graphics-symbol" aria-roledescription="point" transform="translate(716.2068965517241,192)" d="M2.739,0A2.739,2.739,0,1,1,-2.739,0A2.739,2.739,0,1,1,2.739,0" stroke="#83C9FF" stroke-width="2" opacity="0"/><path aria-label="Date: Jan 30, 2024; Counts: 64; 7-Day Avg: 46" role="graphics-symbol" aria-roledescription="point" transform="translate(799.3793103448276,192)" d="M2.739,0A2.739,2.739,0,1,1,-2.739,0A2.739,2.739,0,1,1,2.739,0" stroke="#83C9FF" stroke-width="2" opacity="0"/><path aria-label="Date: Jan 31, 2024; Counts: 62; 7-Day Avg: 48" role="graphics-symbol" aria-roledescription="point" transform="translate(804,192)" d="M2.739,0A2.739,2.739,0,1,1,-2.739,0A2.739,2.739,0,1,1,2.739,0" stroke="#83C9FF" stroke-width="2" opacity="0"/></g><g class="mark-path role-mark view_1_voronoi" role="graphics-symbol" aria-roledescription="path mark container"><path transform="translate(0,0)" d="M0,384L0,0L2.3103408244690504,0L2.3110701697227407,384Z" stroke-width="0.35"/><path transform="translate(0,0)" d="M6.931031212791645,0L6.931626982238429,384L2.3110701697227407,384L2.3103408244690504,0Z" stroke-width="0.35"/><path transform="translate(0,0)" d="M11.551728739903655,0L11.550890286579406,384L6.931626982238429,384L6.931031212791645,0Z" stroke-width="0.35"/><path transform="translate(0,0)" d="M11.550890286579406,384L11.551728739903655,0L16.172416220268325,0L16.171974004586488,384Z" stroke-width="0.35"/><path transform="translate(0,0)" d="M16.171974004586488,384L16.172416220268325,0L20.793098401778117,0L20.794017845061116,384Z" stroke-width="0.35"/><path transform="translate(0,0)" d="M25.413791600516166,0L25.414065426227133,384L20.794017845061116,384L20.793098401778117,0Z" stroke-width="0.35"/><path transform="translate(0,0)" d="M32.34482699651387,0L32.34429407336677,384L25.414065426227133,384L25.413791600516166,0Z" stroke-width="0.35"/><path transform="translate(0,0)" d="M39.275856650467894,0L39.276843870018496,384L32.34429407336677,384L32.34482699651387,0Z" stroke-width="0.35"/><path transform="translate(0,0)" d="M48.51723506901069,0L48.51697047895056,384L39.2768438700185,384L39.2758566504679,0Z" stroke-width="0.35"/><path transform="translate(0,0)" d="M48.516970478950554,384L48.51723506901068,0L57.75861562002697,0L57.759539277547304,384Z" stroke-width="0.35"/><path transform="translate(0,0)" d="M62.37931271412229,0L62.37888104205819,384L57.759539277547304,384L57.75861562002697,0Z" stroke-width="0.35"/><path transform="translate(0,0)" d="M67.00000463572123,0L66.99916003359064,384L62.37888104205819,384L62.37931271412229,0Z" stroke-width="0.35"/><path transform="translate(0,0)" d="M66.99916003359066,384L67.00000463572124,0L71.62068643687269,0L71.62127279283915,384Z" stroke-width="0.35"/><path transform="translate(0,0)" d="M76.24137526404044,0L76.24211247776076,384L71.62127279283915,384L71.62068643687269,0Z" stroke-width="0.35"/><path transform="translate(0,0)" d="M80.86207292485182,0L80.86135155653552,384L76.24211247776077,384L76.24137526404046,0Z" stroke-width="0.35"/><path transform="translate(0,0)" d="M80.86135155653552,384L80.86207292485182,0L85.48276194188702,0L85.48215683855194,384Z" stroke-width="0.35"/><path transform="translate(0,0)" d="M85.48215683855196,384L85.48276194188703,0L90.10344370826562,0L90.10427589844704,384Z" stroke-width="0.35"/><path transform="translate(0,0)" d="M94.72413544636589,0L94.72458813889679,384L90.10427589844704,384L90.10344370826562,0Z" stroke-width="0.35"/><path transform="translate(0,0)" d="M99.34483260883974,0L99.3439175136084,384L94.72458813889679,384L94.72413544636589,0Z" stroke-width="0.35"/><path transform="translate(0,0)" d="M103.96551880620287,0L103.9652337042236,384L99.3439175136084,384L99.34483260883974,0Z" stroke-width="0.35"/><path transform="translate(0,0)" d="M108.58620158732752,0L108.58716889788069,384L103.96523370422359,384L103.96551880620285,0Z" stroke-width="0.35"/><path transform="translate(0,0)" d="M113.20689595924597,0L113.20700390540819,384L108.58716889788069,384L108.58620158732752,0Z" stroke-width="0.35"/><path transform="translate(0,0)" d="M117.82759162462553,0L117.82660454511715,384L113.20700390540819,384L113.20689595924597,0Z" stroke-width="0.35"/><path transform="translate(0,0)" d="M117.82660454511715,384L117.82759162462553,0L122.4482754623353,0L122.44834829154344,384Z" stroke-width="0.35"/><path transform="translate(0,0)" d="M122.44834829154344,384L122.4482754623353,0L127.06896017272216,0L127.06993391383018,384Z" stroke-width="0.35"/><path transform="translate(0,0)" d="M131.68965655094792,0L131.689405389842,384L127.06993391383017,384L127.06896017272214,0Z" stroke-width="0.35"/><path transform="translate(0,0)" d="M136.3103499196444,0L136.3094221755028,384L131.689405389842,384L131.68965655094792,0Z" stroke-width="0.35"/><path transform="translate(0,0)" d="M136.3094221755028,384L136.3103499196444,0L143.24138001392828,0L143.24201586327342,384Z" stroke-width="0.35"/><path transform="translate(0,0)" d="M150.17241695925298,0L150.17184010475887,384L143.24201586327345,384L143.2413800139283,0Z" stroke-width="0.35"/><path transform="translate(0,0)" d="M154.7931075372214,0L154.79236255452543,384L150.17184010475884,384L150.17241695925296,0Z" stroke-width="0.35"/><path transform="translate(0,0)" d="M154.7923625545254,384L154.79310753722137,0L159.41378918842986,0L159.41450248258673,384Z" stroke-width="0.35"/><path transform="translate(0,0)" d="M164.0344793866908,0L164.03509373319824,384L159.41450248258676,384L159.4137891884299,0Z" stroke-width="0.35"/><path transform="translate(0,0)" d="M168.65517694634045,0L168.65435114190475,384L164.03509373319824,384L164.0344793866908,0Z" stroke-width="0.35"/><path transform="translate(0,0)" d="M168.65435114190475,384L168.65517694634045,0L173.2758646108082,0L173.27540150148099,384Z" stroke-width="0.35"/><path transform="translate(0,0)" d="M173.27540150148099,384L173.2758646108082,0L177.8965467260628,0L177.89745734701813,384Z" stroke-width="0.35"/><path transform="translate(0,0)" d="M182.51723975283264,0L182.51753608784796,384L177.89745734701813,384L177.8965467260628,0Z" stroke-width="0.35"/><path transform="translate(0,0)" d="M187.1379363304267,0L187.1369714394593,384L182.51753608784796,384L182.51723975283264,0Z" stroke-width="0.35"/><path transform="translate(0,0)" d="M191.75862134622966,0L191.7585017220818,384L187.1369714394593,384L187.1379363304267,0Z" stroke-width="0.35"/><path transform="translate(0,0)" d="M191.7585017220818,384L191.75862134622966,0L196.3793049286345,0L196.38029172831997,384Z" stroke-width="0.35"/><path transform="translate(0,0)" d="M201.00000033535727,0L200.99993923516652,384L196.38029172831997,384L196.3793049286345,0Z" stroke-width="0.35"/><path transform="translate(0,0)" d="M205.6206950099492,0L205.61971939997892,384L200.99993923516655,384L201.0000003353573,0Z" stroke-width="0.35"/><path transform="translate(0,0)" d="M205.61971939997892,384L205.6206950099492,0L210.24137799430076,0L210.2416177700761,384Z" stroke-width="0.35"/><path transform="translate(0,0)" d="M210.2416177700761,384L210.24137799430076,0L214.86206385176897,0L214.86299554772197,384Z" stroke-width="0.35"/><path transform="translate(0,0)" d="M219.48276087326673,0L219.48235046649305,384L214.86299554772197,384L214.86206385176897,0Z" stroke-width="0.35"/><path transform="translate(0,0)" d="M224.1034529770789,0L224.10259644202208,384L219.48235046649305,384L219.48276087326673,0Z" stroke-width="0.35"/><path transform="translate(0,0)" d="M224.10259644202208,384L224.1034529770789,0L228.72413481745764,0L228.72470209349822,384Z" stroke-width="0.35"/><path transform="translate(0,0)" d="M233.34482345522756,0L233.34557609623897,384L228.72470209349825,384L228.72413481745767,0Z" stroke-width="0.35"/><path transform="translate(0,0)" d="M237.96552111149853,0L237.96481599771235,384L233.34557609623897,384L233.34482345522756,0Z" stroke-width="0.35"/><path transform="translate(0,0)" d="M237.96481599771235,384L237.96552111149853,0L242.5862103187631,0L242.58558681124939,384Z" stroke-width="0.35"/><path transform="translate(0,0)" d="M242.58558681124939,384L242.5862103187631,0L247.20689205484302,0L247.2077113610918,384Z" stroke-width="0.35"/><path transform="translate(0,0)" d="M251.82758360826327,0L251.82805706451552,384L247.2077113610918,384L247.20689205484302,0Z" stroke-width="0.35"/><path transform="translate(0,0)" d="M256.4482808348578,0L256.44737482091557,384L251.82805706451552,384L251.82758360826327,0Z" stroke-width="0.35"/><path transform="translate(0,0)" d="M261.0689672051585,0L261.0686596762193,384L256.44737482091557,384L256.4482808348578,0Z" stroke-width="0.35"/><path transform="translate(0,0)" d="M265.6896498904895,0L265.69061222715425,384L261.0686596762193,384L261.0689672051585,0Z" stroke-width="0.35"/><path transform="translate(0,0)" d="M270.31034410701517,0L270.3104753909658,384L265.69061222715425,384L265.6896498904895,0Z" stroke-width="0.35"/><path transform="translate(0,0)" d="M274.93103989664627,0L274.93005351700793,384L270.31047539096585,384L270.3103441070152,0Z" stroke-width="0.35"/><path transform="translate(0,0)" d="M284.1724201397928,0L284.17268625566686,384L274.93005351700793,384L274.93103989664627,0Z" stroke-width="0.35"/><path transform="translate(0,0)" d="M293.41379823817897,0L293.41286271935564,384L284.17268625566686,384L284.1724201397928,0Z" stroke-width="0.35"/><path transform="translate(0,0)" d="M293.41286271935564,384L293.41379823817897,0L300.34482828442805,0L300.3454592876269,384Z" stroke-width="0.35"/><path transform="translate(0,0)" d="M307.2758651295018,0L307.27530751712476,384L300.3454592876269,384L300.34482828442805,0Z" stroke-width="0.35"/><path transform="translate(0,0)" d="M311.89655589659276,0L311.8957956989779,384L307.2753075171248,384L307.2758651295019,0Z" stroke-width="0.35"/><path transform="translate(0,0)" d="M311.89579569897785,384L311.8965558965927,0L316.5172375546112,0L316.51793439312013,384Z" stroke-width="0.35"/><path transform="translate(0,0)" d="M321.1379275625024,0L321.1385601376424,384L316.5179343931201,384L316.51723755461114,0Z" stroke-width="0.35"/><path transform="translate(0,0)" d="M325.7586251502066,0L325.75781246301733,384L321.1385601376424,384L321.1379275625024,0Z" stroke-width="0.35"/><path transform="translate(0,0)" d="M325.75781246301733,384L325.7586251502066,0L330.3793129999064,0L330.3788292595907,384Z" stroke-width="0.35"/><path transform="translate(0,0)" d="M330.3788292595907,384L330.3793129999064,0L334.9999950531822,0L335.0008963353443,384Z" stroke-width="0.35"/><path transform="translate(0,0)" d="M339.62068790607157,0L339.62100658232436,384L335.0008963353443,384L334.9999950531822,0Z" stroke-width="0.35"/><path transform="translate(0,0)" d="M344.24138457748836,0L344.2404249337881,384L339.6210065823244,384L339.6206879060716,0Z" stroke-width="0.35"/><path transform="translate(0,0)" d="M348.86206974998987,0L348.86192682351395,384L344.2404249337881,384L344.24138457748836,0Z" stroke-width="0.35"/><path transform="translate(0,0)" d="M353.48275320987284,0L353.4837390300239,384L348.86192682351395,384L348.86206974998987,0Z" stroke-width="0.35"/><path transform="translate(0,0)" d="M360.41379254103015,0L360.41328426702876,384L353.4837390300239,384L353.48275320987284,0Z" stroke-width="0.35"/><path transform="translate(0,0)" d="M367.3448263957075,0L367.3450432979461,384L360.41328426702876,384L360.41379254103015,0Z" stroke-width="0.35"/><path transform="translate(0,0)" d="M376.58620437103446,0L376.5860984764179,384L367.3450432979461,384L367.3448263957075,0Z" stroke-width="0.35"/><path transform="translate(0,0)" d="M376.5860984764179,384L376.58620437103446,0L385.8275831998086,0L385.82813107418735,384Z" stroke-width="0.35"/><path transform="translate(0,0)" d="M390.44827164875767,0L390.44903929019756,384L385.8281310741874,384L385.82758319980866,0Z" stroke-width="0.35"/><path transform="translate(0,0)" d="M395.06896929595035,0L395.0682808366015,384L390.44903929019756,384L390.44827164875767,0Z" stroke-width="0.35"/><path transform="translate(0,0)" d="M399.6896586936982,0L399.6890171356339,384L395.0682808366015,384L395.06896929595035,0Z" stroke-width="0.35"/><path transform="translate(0,0)" d="M399.6890171356339,384L399.6896586936982,0L404.3103404039709,0L404.3111463616107,384Z" stroke-width="0.35"/><path transform="translate(0,0)" d="M404.3111463616107,384L404.3103404039709,0L408.93103177163454,0L408.93152572308645,384Z" stroke-width="0.35"/><path transform="translate(0,0)" d="M413.55172905805557,0L413.5508326392519,384L408.9315257230864,384L408.9310317716345,0Z" stroke-width="0.35"/><path transform="translate(0,0)" d="M413.5508326392519,384L413.55172905805557,0L420.48275896760566,0L420.48307248593113,384Z" stroke-width="0.35"/><path transform="translate(0,0)" d="M420.48307248593113,384L420.48275896760566,0L429.7241374715102,0L429.7237221856575,384Z" stroke-width="0.35"/><path transform="translate(0,0)" d="M429.72372218565744,384L429.7241374715101,0L438.9655177981016,0L438.9660209245778,384Z" stroke-width="0.35"/><path transform="translate(0,0)" d="M438.9660209245778,384L438.9655177981016,0L445.89655285160165,0L445.89634743411,384Z" stroke-width="0.35"/><path transform="translate(0,0)" d="M450.51724655380133,0L450.5163037908825,384L445.89634743411,384L445.89655285160165,0Z" stroke-width="0.35"/><path transform="translate(0,0)" d="M450.51630379088243,384L450.5172465538013,0L455.1379289593468,0L455.1383070373554,384Z" stroke-width="0.35"/><path transform="translate(0,0)" d="M455.1383070373554,384L455.1379289593468,0L459.758615895217,0L459.7594894146731,384Z" stroke-width="0.35"/><path transform="translate(0,0)" d="M459.7594894146731,384L459.758615895217,0L464.379313298015,0L464.378775244006,384Z" stroke-width="0.35"/><path transform="translate(0,0)" d="M469.00000425359764,0L468.99922927221655,384L464.378775244006,384L464.379313298015,0Z" stroke-width="0.35"/><path transform="translate(0,0)" d="M468.99922927221655,384L469.00000425359764,0L478.24138353423973,0L478.24156064161593,384Z" stroke-width="0.35"/><path transform="translate(0,0)" d="M478.24156064161593,384L478.24138353423973,0L487.48276138749884,0L487.48225729055264,384Z" stroke-width="0.35"/><path transform="translate(0,0)" d="M487.4822572905526,384L487.4827613874988,0L494.41379378521617,0L494.41440991920814,384Z" stroke-width="0.35"/><path transform="translate(0,0)" d="M494.4144099192082,384L494.4137937852162,0L501.3448328215628,0L501.3438789693962,384Z" stroke-width="0.35"/><path transform="translate(0,0)" d="M501.3438789693962,384L501.3448328215628,0L505.9655181533053,0L505.9653520055635,384Z" stroke-width="0.35"/><path transform="translate(0,0)" d="M505.9653520055635,384L505.9655181533053,0L512.8965522608938,0L512.8970373431406,384Z" stroke-width="0.35"/><path transform="translate(0,0)" d="M512.8970373431406,384L512.8965522608938,0L519.8275915950796,0L519.8266098986725,384Z" stroke-width="0.35"/><path transform="translate(0,0)" d="M519.8266098986725,384L519.8275915950796,0L524.4482747977895,0L524.448468703473,384Z" stroke-width="0.35"/><path transform="translate(0,0)" d="M524.448468703473,384L524.4482747977895,0L529.0689603239771,0L529.0699065072897,384Z" stroke-width="0.35"/><path transform="translate(0,0)" d="M529.0699065072897,384L529.0689603239771,0L533.6896571877899,0L533.6892899976932,384Z" stroke-width="0.35"/><path transform="translate(0,0)" d="M533.6892899976932,384L533.6896571877899,0L540.6206894611013,0L540.6205140732189,384Z" stroke-width="0.35"/><path transform="translate(0,0)" d="M540.6205140732189,384L540.6206894611013,0L547.5517198446771,0L547.5525020511753,384Z" stroke-width="0.35"/><path transform="translate(0,0)" d="M552.1724174782589,0L552.171746063809,384L547.5525020511753,384L547.5517198446771,0Z" stroke-width="0.35"/><path transform="translate(0,0)" d="M556.7931070666363,0L556.7924478218868,384L552.171746063809,384L552.1724174782589,0Z" stroke-width="0.35"/><path transform="translate(0,0)" d="M556.7924478218868,384L556.7931070666363,0L561.4137887556076,0L561.4145809075329,384Z" stroke-width="0.35"/><path transform="translate(0,0)" d="M566.0344799365433,0L566.0349941030494,384L561.4145809075329,384L561.4137887556076,0Z" stroke-width="0.35"/><path transform="translate(0,0)" d="M570.6551772784629,0L570.6542909632053,384L566.0349941030494,384L566.0344799365433,0Z" stroke-width="0.35"/><path transform="translate(0,0)" d="M570.6542909632053,384L570.6551772784629,0L575.2758640001286,0L575.2755121531445,384Z" stroke-width="0.35"/><path transform="translate(0,0)" d="M575.2755121531445,384L575.2758640001286,0L579.8965465057832,0L579.8974972604143,384Z" stroke-width="0.35"/><path transform="translate(0,0)" d="M586.8275857612002,0L586.8271829721875,384L579.8974972604144,384L579.8965465057834,0Z" stroke-width="0.35"/><path transform="translate(0,0)" d="M586.8271829721876,384L586.8275857612003,0L593.7586206767002,0L593.7586230370287,384Z" stroke-width="0.35"/><path transform="translate(0,0)" d="M593.7586230370288,384L593.7586206767003,0L598.3793049502029,0L598.3802878202378,384Z" stroke-width="0.35"/><path transform="translate(0,0)" d="M603.0000010009337,0L602.9998186365077,384L598.3802878202378,384L598.3793049502029,0Z" stroke-width="0.35"/><path transform="translate(0,0)" d="M602.9998186365077,384L603.0000010009337,0L607.6206948664889,0L607.6197453941693,384Z" stroke-width="0.35"/><path transform="translate(0,0)" d="M607.6197453941693,384L607.6206948664889,0L612.2413773549952,0L612.2417336086191,384Z" stroke-width="0.35"/><path transform="translate(0,0)" d="M612.2417336086191,384L612.2413773549952,0L616.8620641123152,0L616.8629483382057,384Z" stroke-width="0.35"/><path transform="translate(0,0)" d="M616.8629483382057,384L616.8620641123152,0L621.4827614648532,0L621.4822432743708,384Z" stroke-width="0.35"/><path transform="translate(0,0)" d="M626.10345260819,0L626.10266328258,384L621.4822432743708,384L621.4827614648532,0Z" stroke-width="0.35"/><path transform="translate(0,0)" d="M626.10266328258,384L626.10345260819,0L630.7241342934288,0L630.7247970445445,384Z" stroke-width="0.35"/><path transform="translate(0,0)" d="M630.7247970445445,384L630.7241342934288,0L635.3448239200886,0L635.3454918660591,384Z" stroke-width="0.35"/><path transform="translate(0,0)" d="M639.9655215503917,0L639.964736472749,384L635.3454918660591,384L635.3448239200886,0Z" stroke-width="0.35"/><path transform="translate(0,0)" d="M639.964736472749,384L639.9655215503917,0L646.8965519216027,0L646.8967303764515,384Z" stroke-width="0.35"/><path transform="translate(0,0)" d="M646.8967303764515,384L646.8965519216027,0L653.8275842155945,0L653.8279470195405,384Z" stroke-width="0.35"/><path transform="translate(0,0)" d="M653.8279470195405,384L653.8275842155945,0L658.448281062668,0L658.4473335430168,384Z" stroke-width="0.35"/><path transform="translate(0,0)" d="M658.4473335430168,384L658.448281062668,0L663.0689665561034,0L663.068777281328,384Z" stroke-width="0.35"/><path transform="translate(0,0)" d="M663.068777281328,384L663.0689665561034,0L670.0000005486035,0L670.000496337886,384Z" stroke-width="0.35"/><path transform="translate(0,0)" d="M670.000496337886,384L670.0000005486035,0L676.9310398830652,0L676.9300559778184,384Z" stroke-width="0.35"/><path transform="translate(0,0)" d="M676.9300559778184,384L676.9310398830652,0L681.5517232004751,0L681.5518939996281,384Z" stroke-width="0.35"/><path transform="translate(0,0)" d="M681.5518939996282,384L681.5517232004752,0L686.1724085644884,0L686.1733611885112,384Z" stroke-width="0.35"/><path transform="translate(0,0)" d="M690.7931053433032,0L690.7927600800826,384L686.1733611885113,384L686.1724085644885,0Z" stroke-width="0.35"/><path transform="translate(0,0)" d="M690.7927600800825,384L690.7931053433031,0L697.7241377201063,0L697.7239470980447,384Z" stroke-width="0.35"/><path transform="translate(0,0)" d="M697.7239470980447,384L697.7241377201063,0L706.9655173201302,0L706.9655884895674,384Z" stroke-width="0.35"/><path transform="translate(0,0)" d="M713.896555437522,0L713.8958788799841,384L706.9655884895674,384L706.9655173201302,0Z" stroke-width="0.35"/><path transform="translate(0,0)" d="M713.8958788799841,384L713.896555437522,0L757.7931071133049,0L757.7931383575113,384Z" stroke-width="0.35"/><path transform="translate(0,0)" d="M801.6896581579134,0L801.6891142167998,384L757.7931383575113,384L757.7931071133049,0Z" stroke-width="0.35"/><path transform="translate(0,0)" d="M801.6891142167998,384L801.6896581579134,0L804,0L804,384Z" stroke-width="0.35"/></g><g class="mark-rule role-mark layer_3_marks" role="graphics-object" aria-roledescription="rule mark container"><line aria-label="date_time: Jan 31, 2024; Date: Jan 31, 2024; Counts: 62; 7-Day Avg: 48" role="graphics-symbol" aria-roledescription="rule mark" transform="translate(804,0)" x2="0" y2="384" stroke="gray"/></g><g class="mark-group role-legend" role="graphics-symbol" aria-roledescription="legend" aria-label="Symbol legend titled 'Metric' for stroke color with 2 values: Counts, 7-Day Avg"><g transform="translate(824,0)"><path class="background" aria-hidden="true" d="M0,0h90v65h-90Z" pointer-events="none"/><g><g class="mark-group role-legend-entry"><g transform="translate(7,26)"><path class="background" aria-hidden="true" d="M0,0h0v0h0Z" pointer-events="none"/><g><g class="mark-group role-scope" role="graphics-object" aria-roledescription="group mark container"><g transform="translate(0,0)"><path class="background" aria-hidden="true" d="M0,0h75.4280014038086v14h-75.4280014038086Z" pointer-events="none" opacity="1"/><g><g class="mark-symbol role-legend-symbol" pointer-events="none"><path transform="translate(7,7)" d="M-5,0L5,0" stroke="blue" stroke-width="4" opacity="1"/></g><g class="mark-text role-legend-label" pointer-events="none"><text text-anchor="start" transform="translate(18,11)" font-family="&quot;Source Sans Pro&quot;, sans-serif" font-size="14px" font-weight="400" fill="#e6eaf1" opacity="1">Counts</text></g></g><path class="foreground" aria-hidden="true" d="" pointer-events="none" display="none"/></g><g transform="translate(0,18)"><path class="background" aria-hidden="true" d="M0,0h75.4280014038086v14h-75.4280014038086Z" pointer-events="none" opacity="1"/><g><g class="mark-symbol role-legend-symbol" pointer-events="none"><path transform="translate(7,7)" d="M-5,0L5,0" stroke="red" stroke-width="4" opacity="1"/></g><g class="mark-text role-legend-label" pointer-events="none"><text text-anchor="start" transform="translate(18,11)" font-family="&quot;Source Sans Pro&quot;, sans-serif" font-size="14px" font-weight="400" fill="#e6eaf1" opacity="1">7-Day Avg</text></g></g><path class="foreground" aria-hidden="true" d="" pointer-events="none" display="none"/></g></g></g><path class="foreground" aria-hidden="true" d="" pointer-events="none" display="none"/></g></g><g class="mark-text role-legend-title" pointer-events="none"><text text-anchor="start" transform="translate(7,18)" font-family="&quot;Source Sans Pro&quot;, sans-serif" font-size="14px" font-style="normal" font-weight="400" fill="#e6eaf1" opacity="1">Metric</text></g></g><path class="foreground" aria-hidden="true" d="" pointer-events="none" display="none"/></g></g><g class="mark-group role-title"><g transform="translate(-63.89200019836426,-18)"><path class="background" aria-hidden="true" d="M0,0h0v0h0Z" pointer-events="none"/><g><g class="mark-text role-title-text" role="graphics-symbol" aria-roledescription="title" aria-label="Title text 'Job Postings Collected by Date'" pointer-events="none"><text text-anchor="start" transform="translate(0,13)" font-family="&quot;Source Sans Pro&quot;, sans-serif" font-size="16px" font-weight="600" fill="#fafafa" opacity="1">Job Postings Collected by Date</text></g></g><path class="foreground" aria-hidden="true" d="" pointer-events="none" display="none"/></g></g></g><path class="foreground" aria-hidden="true" d="" display="none"/></g></g></g></svg>
